PathFileType	3	(X/Y/Z)	feet_movements_1__fused_aligned.trc
DataRate	CameraRate	NumFrames	NumMarkers	Units	OrigDataRate	OrigDataStartFrame	OrigNumFrames
100.0	100.0	15	19	mm	100.0	1096	1830
Frame#	Time	pelvis			neck			head			hip_left			hip_right			knee_left			knee_right			ankle_left			ankle_right			heel_left			heel_right			toe_left			toe_right			shoulder_left			shoulder_right			elbow_left			elbow_right			wrist_left			wrist_right			
		X1	Y1	Z1	X2	Y2	Z2	X3	Y3	Z3	X4	Y4	Z4	X5	Y5	Z5	X6	Y6	Z6	X7	Y7	Z7	X8	Y8	Z8	X9	Y9	Z9	X10	Y10	Z10	X11	Y11	Z11	X12	Y12	Z12	X13	Y13	Z13	X14	Y14	Z14	X15	Y15	Z15	X16	Y16	Z16	X17	Y17	Z17	X18	Y18	Z18	X19	Y19	Z19	
1096	10.95000	193.326513	934.639078	364.699835	213.596723	1448.007079	559.462151	233.735403	1579.301386	465.793309	126.047374	949.919763	332.894409	260.605459	919.358395	396.505426	191.266213	709.817600	-30.809461	308.169918	506.092887	257.807177	173.734278	362.783307	-250.322952	180.266446	154.002818	429.679112	163.044007	307.654104	-243.349567	155.369845	118.524425	473.017137	233.652102	367.002395	-434.669030	221.647850	57.360218	271.794581	41.198958	1407.091787	528.587554	372.546827	1394.746514	632.302110	-120.002928	1204.626329	411.580066	505.350076	1167.695783	554.787774	-228.881742	1096.261503	223.280741	585.219318	1116.562989	334.135229
1097	10.96000	193.406747	934.891511	365.953294	213.560187	1448.530659	559.982262	233.600735	1579.731835	466.162137	126.089676	950.220753	334.121692	260.723625	919.562271	397.785061	192.324654	712.215213	-30.568778	307.625513	506.063771	259.584980	175.908754	364.748005	-249.409041	180.037346	153.591610	430.718815	165.531747	309.353524	-242.829814	155.161472	117.996393	473.970428	235.545337	372.149002	-433.692204	221.576771	57.350338	272.598681	41.180841	1407.351278	528.952042	372.502235	1395.716772	633.098286	-119.598170	1204.778134	411.968578	506.015021	1169.063762	556.936829	-228.189993	1096.438967	223.776360	585.216289	1118.606244	336.000392
1098	10.97000	193.486980	935.143944	367.206753	213.523652	1449.054239	560.502374	233.466066	1580.162283	466.530965	126.131978	950.521744	335.348975	260.841790	919.766146	399.064695	193.383096	714.612825	-30.328095	307.081109	506.034655	261.362782	178.083230	366.712702	-248.495129	179.808246	153.180402	431.758518	168.019488	311.052943	-242.310061	154.953098	117.468361	474.923720	237.438572	377.295609	-432.715378	221.505691	57.340457	273.402780	41.162723	1407.610768	529.316531	372.457643	1396.687030	633.894462	-119.193412	1204.929940	412.357090	506.679967	1170.431741	559.085884	-227.498244	1096.616431	224.271980	585.213260	1120.649498	337.865554
1099	10.98000	193.567214	935.396376	368.460212	213.487117	1449.577819	561.022486	233.331398	1580.592731	466.899793	126.174279	950.822735	336.576259	260.959955	919.970021	400.344330	194.441537	717.010438	-30.087412	306.536705	506.005539	263.140585	180.257707	368.677400	-247.581218	179.579146	152.769194	432.798222	170.507228	312.752363	-241.790308	154.744724	116.940328	475.877011	239.331807	382.442216	-431.738551	221.434612	57.330576	274.206880	41.144606	1407.870258	529.681019	372.413052	1397.657288	634.690639	-118.788654	1205.081745	412.745602	507.344913	1171.799720	561.234939	-226.806495	1096.793895	224.767599	585.210231	1122.692752	339.730716
1100	10.99000	193.647447	935.648809	369.713671	213.450581	1450.101399	561.542598	233.196729	1581.023180	467.268620	126.216581	951.123725	337.803542	261.078121	920.173896	401.623964	195.499978	719.408051	-29.846729	305.992301	505.976424	264.918388	182.432183	370.642098	-246.667307	179.350046	152.357986	433.837925	172.994968	314.451783	-241.270556	154.536350	116.412296	476.830303	241.225042	387.588824	-430.761725	221.363532	57.320696	275.010979	41.126488	1408.129748	530.045508	372.368460	1398.627546	635.486815	-118.383896	1205.233550	413.134114	508.009859	1173.167699	563.383994	-226.114746	1096.971358	225.263219	585.207202	1124.736007	341.595879
1101	11.00000	193.727681	935.901242	370.967130	213.414046	1450.624979	562.062709	233.062061	1581.453628	467.637448	126.258882	951.424716	339.030825	261.196286	920.377771	402.903599	196.558420	721.805663	-29.606046	305.447896	505.947308	266.696191	184.606659	372.606795	-245.753396	179.120946	151.946778	434.877628	175.482708	316.151202	-240.750803	154.327977	115.884264	477.783594	243.118277	392.735431	-429.784899	221.292453	57.310815	275.815079	41.108371	1408.389239	530.409996	372.323868	1399.597804	636.282991	-117.979138	1205.385355	413.522626	508.674805	1174.535678	565.533049	-225.422998	1097.148822	225.758838	585.204173	1126.779261	343.461041
1102	11.01000	194.080668	936.177701	372.177586	213.837072	1451.069509	562.406996	233.431541	1581.868255	467.817051	126.547023	951.720558	340.228102	261.614142	920.634844	404.127238	198.023906	725.361105	-29.793769	305.601453	506.115059	268.080299	187.148328	375.453706	-244.685268	179.818468	151.541237	435.213553	178.370305	318.765813	-240.021827	155.073928	115.296818	477.990583	245.192556	398.493981	-428.456075	222.325858	57.522477	275.848778	41.487307	1408.637000	530.733136	372.751689	1400.432162	636.805943	-117.393427	1205.605385	413.804541	509.477091	1175.536271	567.120645	-224.685075	1097.213627	226.068715	584.977753	1128.308900	344.741170
1103	11.02000	194.433655	936.454160	373.388043	214.260098	1451.514039	562.751283	233.801021	1582.282882	467.996654	126.835164	952.016401	341.425378	262.031998	920.891918	405.350877	199.489392	728.916547	-29.981493	305.755010	506.282810	269.464408	189.689996	378.300617	-243.617140	180.515991	151.135696	435.549478	181.257903	321.380424	-239.292852	155.819879	114.709372	478.197573	247.266835	404.252531	-427.127250	223.359264	57.734139	275.882476	41.866243	1408.884760	531.056277	373.179510	1401.266520	637.328894	-116.807715	1205.825414	414.086456	510.279377	1176.536865	568.708240	-223.947153	1097.278432	226.378592	584.751333	1129.838540	346.021299
1104	11.03000	194.786642	936.730619	374.598499	214.683125	1451.958569	563.095570	234.170501	1582.697508	468.176256	127.123305	952.312243	342.622654	262.449854	921.148991	406.574516	200.954879	732.471989	-30.169216	305.908566	506.450561	270.848516	192.231665	381.147528	-242.549013	181.213513	150.730155	435.885403	184.145501	323.995035	-238.563876	156.565830	114.121926	478.404562	249.341114	410.011081	-425.798425	224.392669	57.945800	275.916175	42.245179	1409.132521	531.379417	373.607330	1402.100879	637.851846	-116.222004	1206.045444	414.368371	511.081663	1177.537458	570.295836	-223.209231	1097.343237	226.688469	584.524913	1131.368179	347.301428
1105	11.04000	195.139629	937.007078	375.808955	215.106151	1452.403099	563.439856	234.539981	1583.112135	468.355859	127.411446	952.608085	343.819931	262.867710	921.406065	407.798156	202.420365	736.027431	-30.356940	306.062123	506.618312	272.232624	194.773334	383.994439	-241.480885	181.911036	150.324614	436.221328	187.033099	326.609646	-237.834900	157.311781	113.534480	478.611551	251.415394	415.769632	-424.469601	225.426074	58.157462	275.949874	42.624115	1409.380282	531.702558	374.035151	1402.935237	638.374797	-115.636293	1206.265474	414.650286	511.883949	1178.538051	571.883432	-222.471309	1097.408041	226.998346	584.298493	1132.897819	348.581556
1106	11.05000	195.492616	937.283537	377.019411	215.529177	1452.847629	563.784143	234.909461	1583.526762	468.535462	127.699587	952.903928	345.017207	263.285566	921.663139	409.021795	203.885852	739.582873	-30.544663	306.215679	506.786062	273.616733	197.315003	386.841350	-240.412757	182.608558	149.919073	436.557253	189.920697	329.224256	-237.105925	158.057732	112.947034	478.818540	253.489673	421.528182	-423.140776	226.459479	58.369124	275.983573	43.003051	1409.628043	532.025698	374.462971	1403.769595	638.897748	-115.050581	1206.485503	414.932201	512.686235	1179.538645	573.471028	-221.733387	1097.472846	227.308223	584.072073	1134.427458	349.861685
1107	11.06000	195.845603	937.559996	378.229867	215.952203	1453.292160	564.128430	235.278941	1583.941389	468.715065	127.987728	953.199770	346.214484	263.703422	921.920212	410.245434	205.351338	743.138314	-30.732386	306.369236	506.953813	275.000841	199.856672	389.688260	-239.344629	183.306081	149.513532	436.893177	192.808295	331.838867	-236.376949	158.803683	112.359588	479.025530	255.563952	427.286732	-421.811951	227.492885	58.580785	276.017272	43.381988	1409.875804	532.348839	374.890792	1404.603953	639.420700	-114.464870	1206.705533	415.214116	513.488521	1180.539238	575.058624	-220.995465	1097.537651	227.618100	583.845653	1135.957097	351.141814
1108	11.07000	196.198590	937.836455	379.440324	216.375229	1453.736690	564.472717	235.648421	1584.356016	468.894668	128.275869	953.495613	347.411760	264.121279	922.177286	411.469073	206.816825	746.693756	-30.920110	306.522793	507.121564	276.384949	202.398341	392.535171	-238.276501	184.003603	149.107991	437.229102	195.695893	334.453478	-235.647974	159.549634	111.772142	479.232519	257.638231	433.045283	-420.483127	228.526290	58.792447	276.050971	43.760924	1410.123565	532.671979	375.318613	1405.438312	639.943651	-113.879159	1206.925563	415.496031	514.290807	1181.539831	576.646220	-220.257543	1097.602456	227.927977	583.619233	1137.486737	352.421942
1109	11.08000	196.551577	938.112914	380.650780	216.798256	1454.181220	564.817004	236.017901	1584.770643	469.074270	128.564010	953.791455	348.609036	264.539135	922.434359	412.692713	208.282311	750.249198	-31.107833	306.676349	507.289315	277.769058	204.940010	395.382082	-237.208374	184.701126	148.702450	437.565027	198.583491	337.068089	-234.918998	160.295585	111.184696	479.439508	259.712510	438.803833	-419.154302	229.559695	59.004109	276.084670	44.139860	1410.371326	532.995120	375.746433	1406.272670	640.466602	-113.293447	1207.145592	415.777946	515.093093	1182.540424	578.233816	-219.519621	1097.667261	228.237854	583.392814	1139.016376	353.702071
1110	11.09000	196.904564	938.389374	381.861236	217.221282	1454.625750	565.161290	236.387381	1585.185270	469.253873	128.852151	954.087297	349.806313	264.956991	922.691433	413.916352	209.747798	753.804640	-31.295557	306.829906	507.457066	279.153166	207.481679	398.228993	-236.140246	185.398648	148.296909	437.900952	201.471088	339.682700	-234.190022	161.041536	110.597250	479.646498	261.786790	444.562383	-417.825477	230.593101	59.215771	276.118369	44.518796	1410.619087	533.318260	376.174254	1407.107028	640.989554	-112.707736	1207.365622	416.059862	515.895379	1183.541018	579.821412	-218.781699	1097.732066	228.547731	583.166394	1140.546016	354.982200
